<svg xmlns="http://www.w3.org/2000/svg" viewBox="0 0 48 48" width="96" height="96">
    <path style="fill:#e53935" d="M35.25 31c1.03.72 1.75 2 1.75 3 0 1.25-.25 2.13-1.13 3 0 0 .13.13.76.13 3.5 0 4.37-1.95 4.37-2.63 0-2-2-2.5-2-2.5.63-.01 1.22.03 1.8.18a5.49 5.49 0 0 1 3.74 2.93c.3.6.45 1.2.46 1.8a4.4 4.4 0 0 1-1.63 3.34C41.53 41.89 38.13 42 38 42a3.63 3.63 0 0 0 2.63 1.13c.62 0 1.37-.13 1.37-.13-.04.05-.75.88-2.64 1.58A7.8 7.8 0 0 1 37 45a6.6 6.6 0 0 1-1.42-.13 5.5 5.5 0 0 1-4.04-3.2 8 8 0 0 1-.54-2.05 3.1 3.1 0 0 0-1 2.13c.13 1.63 1.01 2.23 1 2.25-.14-.06-3-.63-3-4.63v-1.74c0-1.04-.47-1.9-1.28-2.56a546.75 546.75 0 0 0-4.1-3.34 3.68 3.68 0 0 1-1.53-2.9c0-.76-.36-1.32-.95-1.76-.38-.29-.75-.57-1.1-.88-.59-.57-.7-1.27-.5-2.05.04.03.07.04.07.06.24.94.96 1.29 1.84 1.43.47.07.95.1 1.41.2.49.11.77.45.88.92l.19.88c.13.56.42.8 1 .83l1.14.08c.6.06 1.12.3 1.58.68l4.85 3.93c.42.34 1.13.85 1.88.85.87 0 2-.63 2-1.88 0-.74-.13-1.12-.13-1.12z"/>
    <path d="m25.9 36.07-3.44-2.8c-.64 1.04-3.1 4.73-6.59 4.73a4.68 4.68 0 0 1-4.12-2.6 6.82 6.82 0 0 1-.75-3.02c0-4.25 2.67-6.58 2.74-6.66a2.13 2.13 0 0 0-1.87.29c-.6.4-1.67 1.08-1.75 1.12-.12 0-.12 0-.12-.13l.38-2.5A9.9 9.9 0 0 0 7 26.88c-.75.75-1.36 1.41-1.36 1.41-.39-1.41.24-3.91.36-4.79.07-.51-.13-.5-.13-.5-.25 0-1 .77-1.37 1.16a9.16 9.16 0 0 0-2.31 4.2c-.08.31-.13.7-.19 1.02.02 0 .63-.88 1.13-.88.25 0 .26.38.25.52-.01.2-.08.42-.15.62A14.47 14.47 0 0 0 2.5 34c0 .68.05 1.36.15 2.04.19 1.17.47 2.02.98 3.09.73 1.5 2.04 2.8 2.13 2.87-.06-.21-.19-.5-.21-.67-.04-.32-.1-.65-.07-.96.04-.4.39-.49.68-.2.12.12 1.54 1.46 2.38 2A10.8 10.8 0 0 0 14.5 44c1.08 0 2.19-.15 3.32-.44a11.19 11.19 0 0 0 4.35-2.3 16.93 16.93 0 0 0 3.92-4.99l-.2-.2zM31.32 22.08c-2 1.32-3.65 3.5-5.1 5.37l-.03.04c.45.16.88.4 1.28.72l1.6 1.3.12-.24c.99-2.04 2.18-4.48 3.7-6.18a5.25 5.25 0 0 1 6-1.25c.24.11.43.17.62.16.2 0 .38-.07.62-.2 1.5-.77 3.13-1.16 4.82-1.15.34 0 1.05.1 1.05.1a10.75 10.75 0 0 0-2.16-1.66A8.2 8.2 0 0 0 39.75 18c-2 0-3 .62-3.54.62-.21 0-.31-.05-.39-.15-.06-.09-.04-.28.01-.4.3-.57 1.1-1.02 1.17-1.07-.63 0-2 .74-2.8 1.35l-1.6 1.24c-.1.08-.23.15-.36.19-.36.1-.54-.08-.43-.42.05-.15.12-.3.2-.44l.42-.69c-3.8 2.4-4.46 5.68-4.43 5.65A12.44 12.44 0 0 1 31.88 21a11.4 11.4 0 0 1 5-1.12s.12.1.12.12c0 0-.75 0-1.54.24-1.5.34-2.87 1-4.14 1.84z"/>
    <path d="M16.75 11.25c0 .5.13 1 .28 1.41a7.19 7.19 0 0 0 1.9 2.76c.8.79 1.64 1.53 2.46 2.3a7.67 7.67 0 0 1 1.97 2.68c.24.6.36 1.22.26 1.86-.02.18.04.27.2.33.41.18.67.46.69.92.01.21.14.18.27.11.72-.37 1.05-.93 1.1-1 .08.18.12.39.12.63-.01 1.35-1.2 3.56-2.33 4l.04-.26c.16-.89-.28-1.62-1.15-1.9-.59-.2-1.07-.2-1.69-.22h-.5c.05-.1.4-.82.47-1.1.11-.4-.03-.67-.44-.76-.43-.1-.9-.16-1.34-.16a13.25 13.25 0 0 0-3.56.53c.87 0 2 .37 2 .37s-.5 1-.5 1.63c0 .5.25.87.5.87s.39-.17.5-.25c-.02.14-.16.85-.18 1.2-.03.52.18.8.8.8H19c-.25.88-2.13 2.03-3.25 2-.07 0-.14 0-.2-.02.45-.23 1.14-1.1 1.14-1.48l-1.5.2s.52-.64.68-.96c.42-.83.47-1.67-.09-2.46-.47-.66-1.24-.95-2.03-1.03-1.25 0-1.9.35-2 .38.57-1.24 1.38-2 2.63-2.63-1-.5-2-.62-2-.62 1-.63 2.5-1.13 3.62-1.38h-.5c-3.75 0-5.22 1.94-5.25 2 .6.1 1 .13 1.75.38 0 0-2 .37-5 2.62.02-.11.38-.87.38-1.62 0-2.63-3.33-2.1-3.38-2.13.08-.07.75-.62 2.86-1.64.4-.22 1.51-.73 1.51-1.36 0-.87-1.73-2.15-1.87-2.25 1.38 0 2.15.13 3.25.38a4 4 0 0 1-.49-3.1c.43.8 1.04 1.44 1.79 1.93.68.45 1.4.85 2.1 1.28.54.33 1.1.63 1.59 1 .37.3.67.69 1 1.03.06.06.1.13.15.2l.09-.05c-.08-.2-.14-.4-.24-.6a4.88 4.88 0 0 0-1.7-1.84c-.29-.2-.45-.43-.5-.76a7.65 7.65 0 0 1 0-2.85c.1-.5.71-1.62.71-1.62v.13a5.25 5.25 0 0 0 1.38 3.37c.87 1.04 2.02 1.8 3.01 2.73A22.97 22.97 0 0 1 21.25 20l-.08-.28a8.55 8.55 0 0 0-2.11-2.78c-.75-.7-1.51-1.4-2.28-2.08a1.42 1.42 0 0 1-.48-.91 5.15 5.15 0 0 1 .45-2.7zM19 20s.08.5.2.74C19.75 21.88 21 22 21 22s0-.88-1.25-1.75C19.38 19.99 19 20 19 20z"/>
    <path d="M8 12.63C8.25 11.37 9 10 9 10s.46 1.57 1.25 2.63a6.4 6.4 0 0 0 1.86 1.71c-.02-.67.03-1.33.16-1.97.1-.55.5-1.33.73-1.78v-.09C13 8.57 14.34 7 16 7s3 1.57 3 3.5c0 1.38-.11 2.06-.27 2.5l-.04.1c.13.22.28.43.46.65l.03.04c.19.23.4.46.65.7.47.46.98.93 1.47 1.37l.98.9.22.23A9.05 9.05 0 0 0 25 11c0-5-4.03-8-9-8s-9 3.13-9 8c0 1.22.32 2.44.86 3.58-.03-.54.03-1.41.14-1.96z"/>
</svg>