<svg xmlns="http://www.w3.org/2000/svg" width="20" height="20" viewBox="-50 -50 400 400">
	<path d="M148 185a15 15 0 0 0-15.2-14.1h-4c4.6-2.8 7.5-8 7-13.7a15.1 15.1 0 0 0-15.1-13.8h-10.9a24 24 0 0 1-5 16.8c-1.5 1.7-3.3 3-5.2 3.9-.6.3-.4 1.3.3 1.3h3.9c1.6 0 3.2.7 4 2.1 1.8 3-.5 6.6-3.8 6.6H80.4c-.9 0-1.7.3-2.4.7a11.6 11.6 0 0 0 0 19.6c.7.4 1.6.7 2.5.7h29c2.9 0 5 2.9 4.1 5.7a4.6 4.6 0 0 1-4.4 3H80.5c-1 0-1.8.3-2.5.8a11.6 11.6 0 0 0 0 19.5 4 4 0 0 0 2.3.7h20.1c2.6 0 4.9 2.4 4.3 5.3-.4 2-2.3 3.5-4.4 3.5H80.4c-.8 0-1.6.2-2.3.7a11.6 11.6 0 0 0-5.4 9.8c0 5.5 4 10.4 9.4 11.5h27c7.8 0 14.6-6 15.2-13.8a15 15 0 0 0-7-13.7h4.4c7.8 0 14.6-6 15.2-13.8.4-5.8-2.5-11-7-13.7h3.3c8.5 0 15.3-7 14.8-15.6zm-75.2-28.5c.5 3.4 2.4 6.3 5.3 8.2.7.4 1.5.7 2.3.7H83c.7 0 1-1 .3-1.3a24 24 0 0 1-6.5-4.1l-3.9-3.5z"/>
	<path d="M64 154.9c0-2 .2-3.9.7-5.6l-3.2-2.9a3.9 3.9 0 1 1 5.2-5.8L82 154.2A12.1 12.1 0 1 0 98.1 136l-26.6-23.7a12.1 12.1 0 0 0-16.8.5l-.1.1c-34.7 32.7-42.2 40.8-45 44.3A37 37 0 0 0 0 183v30.5a42 42 0 0 0 42 42h25.4a20.6 20.6 0 0 1 3-26.3 20.4 20.4 0 0 1 0-29.7 20.4 20.4 0 0 1 0-29.8c-4-3.8-6.5-9-6.5-14.8zm163.1 9.7c2.8-1.8 4.7-4.8 5.2-8.1l-6.1 5.2a19 19 0 0 1-2.6 1.9c-.8.5-.4 1.8.6 1.8h.6a4 4 0 0 0 2.3-.8zm-22.4 60.2h20a4 4 0 0 0 2.4-.7 11.6 11.6 0 0 0 0-19.5 4 4 0 0 0-2.4-.7h-28.8c-1.6 0-3.1-.8-4-2.2-1.8-3 .4-6.6 3.8-6.6h28.8a5 5 0 0 0 2.6-.7 11.6 11.6 0 0 0 0-19.6c-.7-.4-1.6-.7-2.4-.7h-23.6a4.4 4.4 0 0 1-3.8-6.6 4.6 4.6 0 0 1 4-2.1h4.8c1 0 1.3-1.4.4-1.8-2.2-1.3-4.4-3-6.3-5.2-3.5-4-5.4-9.2-5-15h-10.8a15 15 0 0 0-15.2 13.8 14.8 14.8 0 0 0 7 13.7h-3.9c-8 0-14.9 6.1-15.3 14.1a14.9 14.9 0 0 0 14.9 15.6h3.3a14.8 14.8 0 0 0-7 13.7c.6 7.8 7.4 13.8 15.2 13.8h4.5a14.8 14.8 0 0 0-7 13.7 15 15 0 0 0 15.1 13.8h27a11.7 11.7 0 0 0 4.1-21.3c-.7-.4-1.5-.7-2.4-.7h-19.9c-2 0-4-1.4-4.4-3.5a4.4 4.4 0 0 1 4.3-5.3z"/>
	<path d="M295.5 157.2a17 17 0 0 0-2.8-4l-7.2-7.4-35.1-33c-4.6-4.6-12-4.9-16.8-.5L207 136a12.2 12.2 0 1 0 16.2 18.2l15.2-13.6a3.9 3.9 0 0 1 5.6 5.3l-3.6 3.4a20.4 20.4 0 0 1-5.6 20.4 20.4 20.4 0 0 1 0 29.8 20.4 20.4 0 0 1 0 29.7 20.4 20.4 0 0 1 2.8 26.4h25.5a42 42 0 0 0 42-42V183c0-9.8-3.6-18.8-9.6-25.8zM160 123V57a7.5 7.5 0 1 0-15 0v66a7.5 7.5 0 1 0 15 0zm-44.2 3.2a7.5 7.5 0 1 0 13.6-6.4l-23.1-49a7.5 7.5 0 1 0-13.6 6.4l23 49zm63.5 3.6c3.8 1.7 8.2.1 10-3.6l23-49a7.5 7.5 0 1 0-13.5-6.4l-23 49a7.5 7.5 0 0 0 3.5 10z"/>
</svg>